<?xml version="1.0" encoding="utf-8"?>
<!-- Generator: Adobe Illustrator 19.0.1, SVG Export Plug-In . SVG Version: 6.00 Build 0)  -->
<svg version="1.1" id="Layer_1" xmlns="http://www.w3.org/2000/svg" xmlns:xlink="http://www.w3.org/1999/xlink" x="0px" y="0px"
	 viewBox="500 -175.8 1089.8 440.8" style="enable-background:new 500 -175.8 1089.8 440.8;" xml:space="preserve">
<style type="text/css">
	.st0{fill:#23B99E;}
	.st1{fill:#FFFFFF;}
	.st2{fill:#B5B6B6;}
	.st3{fill:#B4B4B5;}
	.st4{fill:#20B89D;}
	.st5{fill:#B3B3B4;}
</style>
<g>
	<path class="st0" d="M542.1,9.2h32.8v31.7c0,0,1.3,30.6-32.5,39V66.3c0,0,16.9-4,19.3-24.4h-19.6V9.2L542.1,9.2z"/>
	<path class="st0" d="M499.9,9.2h32.8v31.7c0,0,1.3,30.6-32.5,39V66.3c0,0,16.9-4,19.3-24.4h-19.6V9.2z"/>
</g>
<polygon id="star-2-icon_2_" class="st0" points="717.4,4.2 730.4,31 759.9,35 738.4,55.7 743.7,85 717.4,70.9 691.1,85 696.4,55.7 
	674.9,35 704.4,31 "/>
<polygon id="plus-2-icon_2_" class="st0" points="934.9,68.3 911.2,44.6 934.9,20.9 921.1,7.1 897.4,30.8 873.7,7.1 859.9,20.9 
	883.6,44.6 859.9,68.3 873.7,82.1 897.4,58.4 921.1,82.1 "/>
<polygon id="check-mark-icon_3_" class="st0" points="1104.1,14 1066.8,51.2 1050.7,35.1 1038.7,47.1 1066.8,75.2 1116.1,25.9 "/>
<g>
	<path class="st1" d="M542.1,189.2h32.8v31.7c0,0,1.3,30.6-32.5,39v-13.7c0,0,16.9-4,19.3-24.4h-19.6V189.2L542.1,189.2z"/>
	<path class="st1" d="M499.9,189.2h32.8v31.7c0,0,1.3,30.6-32.5,39v-13.7c0,0,16.9-4,19.3-24.4h-19.6V189.2z"/>
</g>
<polygon id="star-2-icon_7_" class="st1" points="717.4,184.2 730.4,211 759.9,215 738.4,235.7 743.7,265 717.4,251 691.1,265 
	696.4,235.7 674.9,215 704.4,211 "/>
<polygon id="plus-2-icon_7_" class="st1" points="934.9,248.3 911.2,224.6 934.9,200.9 921.1,187.1 897.4,210.8 873.7,187.1 
	859.9,200.9 883.6,224.6 859.9,248.3 873.7,262.1 897.4,238.4 921.1,262.1 "/>
<polygon id="check-mark-icon_5_" class="st1" points="1104.1,194 1066.8,231.2 1050.7,215.1 1038.7,227.1 1066.8,255.2 
	1116.1,205.9 "/>
<g>
	<path class="st2" d="M542.1-170.8h32.8v31.7c0,0,1.3,30.6-32.5,39v-13.7c0,0,16.9-4,19.3-24.4h-19.6V-170.8L542.1-170.8z"/>
	<path class="st2" d="M499.9-170.8h32.8v31.7c0,0,1.3,30.6-32.5,39v-13.7c0,0,16.9-4,19.3-24.4h-19.6V-170.8z"/>
</g>
<polygon id="star-2-icon_5_" class="st2" points="717.4,-175.8 730.4,-149 759.9,-145 738.4,-124.3 743.7,-95 717.4,-109.1 
	691.1,-95 696.4,-124.3 674.9,-145 704.4,-149 "/>
<polygon id="plus-2-icon_5_" class="st2" points="934.9,-111.7 911.2,-135.4 934.9,-159.1 921.1,-172.9 897.4,-149.2 873.7,-172.9 
	859.9,-159.1 883.6,-135.4 859.9,-111.7 873.7,-97.9 897.4,-121.6 921.1,-97.9 "/>
<polygon id="check-mark-icon_2_" class="st2" points="1104.1,-166 1066.8,-128.8 1050.7,-144.9 1038.7,-132.9 1066.8,-104.8 
	1116.1,-154.1 "/>
<path class="st3" d="M1271.3-148.5c0-9.1,1.8-14.3,9.4-16.8c-5.9-2.5-36.9-8.5-36.9,19.8c0,9.5,0,17.4,0,17.4h-11l24.8,24.8
	l24.8-24.8h-11C1271.3-128.1,1271.3-140.6,1271.3-148.5z"/>
<path class="st4" d="M1271.3,31.5c0-9.1,1.8-14.3,9.4-16.8c-5.9-2.5-36.9-8.5-36.9,19.8c0,9.5,0,17.4,0,17.4h-11l24.8,24.8
	l24.8-24.8h-11C1271.3,51.9,1271.3,39.4,1271.3,31.5z"/>
<path class="st1" d="M1271.3,211.5c0-9.1,1.8-14.3,9.4-16.8c-5.9-2.5-36.9-8.5-36.9,19.8c0,9.5,0,17.4,0,17.4h-11l24.8,24.8
	l24.8-24.8h-11C1271.3,231.9,1271.3,219.5,1271.3,211.5z"/>
<g>
	<path class="st5" d="M1569.1-113h-33.2v-33.2h19.4l9-9h-37.4v51.2h51.2v-37.4l-9,9V-113z"/>
	<path class="st5" d="M1589.5-166.6c-0.2-0.2-0.5-0.3-0.8-0.3l-24.9,4.3c-0.3,0.1-0.6,0.3-0.7,0.6c-0.1,0.3,0,0.7,0.2,1l5.9,5.9
		l-15.1,15.1c-0.4,0.4-0.4,1,0,1.3l7.5,7.5c0.2,0.2,0.4,0.3,0.7,0.3s0.5-0.1,0.7-0.3l15.1-15.1l5.9,5.9c0.3,0.3,0.6,0.3,1,0.2
		c0.3-0.1,0.6-0.4,0.6-0.7l4.3-24.9C1589.8-166,1589.7-166.3,1589.5-166.6z"/>
</g>
<g>
	<path class="st4" d="M1569.1,67h-33.2V33.8h19.4l9-9h-36.4c-0.5,0-0.9,0.4-0.9,0.9V75c0,0.5,0.4,0.9,0.9,0.9h49.3
		c0.5,0,0.9-0.4,0.9-0.9V38.6l-9,9V67L1569.1,67z"/>
	<path class="st4" d="M1589.5,13.4c-0.2-0.2-0.5-0.3-0.8-0.3l-24.9,4.3c-0.3,0.1-0.6,0.3-0.7,0.6c-0.1,0.3,0,0.7,0.2,1l5.9,5.9
		L1554.1,40c-0.4,0.4-0.4,1,0,1.3l7.5,7.5c0.2,0.2,0.4,0.3,0.7,0.3s0.5-0.1,0.7-0.3l15.1-15.1l5.9,5.9c0.3,0.3,0.6,0.3,1,0.2
		c0.3-0.1,0.6-0.4,0.6-0.7l4.3-24.9C1589.8,14,1589.7,13.7,1589.5,13.4z"/>
</g>
<g>
	<path class="st1" d="M1569.1,247h-33.2v-33.2h19.4l9-9h-36.4c-0.5,0-0.9,0.4-0.9,0.9V255c0,0.5,0.4,0.9,0.9,0.9h49.3
		c0.5,0,0.9-0.4,0.9-0.9v-36.4l-9,9V247L1569.1,247z"/>
	<path class="st1" d="M1589.5,193.4c-0.2-0.2-0.5-0.3-0.8-0.3l-24.9,4.3c-0.3,0.1-0.6,0.3-0.7,0.6c-0.1,0.3,0,0.7,0.2,1l5.9,5.9
		l-15.1,15.1c-0.4,0.4-0.4,1,0,1.3l7.5,7.5c0.2,0.2,0.4,0.3,0.7,0.3s0.5-0.1,0.7-0.3l15.1-15.1l5.9,5.9c0.3,0.3,0.6,0.3,1,0.2
		c0.3-0.1,0.6-0.4,0.6-0.7l4.3-24.9C1589.8,194,1589.7,193.7,1589.5,193.4z"/>
</g>
<g>
	<rect x="1380.9" y="-144.2" class="st5" width="51.1" height="40.5"/>
	<rect x="1374.6" y="-167.2" class="st5" width="63.8" height="14.2"/>
</g>
<g>
	<rect x="1380.9" y="35.8" class="st4" width="51.1" height="40.5"/>
	<rect x="1374.6" y="12.8" class="st4" width="63.8" height="14.2"/>
</g>
<g>
	<rect x="1380.9" y="215.8" class="st1" width="51.1" height="40.5"/>
	<rect x="1374.6" y="192.8" class="st1" width="63.8" height="14.2"/>
</g>
</svg>
